# xmcd
#
# Track frame offsets:
#	150
#	3907
#	25799
#	77107
#	96446
#	117152
#	157511
#	217824
#
# Disc length: 3127 seconds
#
# Revision: 1
# Processed by: cddbd v1.5PL3 Copyright (c) Steve Scherf et al.
# Submitted via: audiograbber 1.82.01
#
DISCID=4e0c3508
DTITLE=Jethro Tull - 1961-01-09 - Stockholm Sweden - Late Show
DYEAR=1900
DGENRE=
TTITLE0=Jethro Tull - intro
TTITLE1=Jethro Tull - My Sunday Feeling
TTITLE2=Jethro Tull - Martin's Tune
TTITLE3=Jethro Tull - To Be Sad Is A Mad Way To Be
TTITLE4=Jethro Tull - Back to the Family
TTITLE5=Jethro Tull - Dharma For One
TTITLE6=Jethro Tull - Nothing Is Easy
TTITLE7=Jethro Tull - Song For Jeffrey
EXTD=
EXTT0=
EXTT1=
EXTT2=
EXTT3=
EXTT4=
EXTT5=
EXTT6=
EXTT7=
PLAYORDER=
